<svg preserveAspectRatio="none" overflow="visible" style="display: block;" width="17" height="17" viewBox="0 0 17 17" fill="none" xmlns="http://www.w3.org/2000/svg">
<g id="Icon">
<path id="Vector" d="M7.27317 14.875C7.39751 15.0903 7.57634 15.2692 7.7917 15.3935C8.00705 15.5178 8.25134 15.5833 8.5 15.5833C8.74866 15.5833 8.99295 15.5178 9.2083 15.3935C9.42366 15.2692 9.60249 15.0903 9.72683 14.875" stroke="#3D3352" stroke-width="1.41667" stroke-linecap="round" stroke-linejoin="round"/>
<path id="Vector_2" d="M2.31058 10.8559C2.21805 10.9573 2.15698 11.0835 2.13481 11.219C2.11264 11.3544 2.13033 11.4935 2.18571 11.6191C2.24109 11.7447 2.33179 11.8515 2.44676 11.9265C2.56174 12.0016 2.69604 12.0416 2.83333 12.0417H14.1667C14.3039 12.0417 14.4383 12.0019 14.5533 11.927C14.6684 11.8521 14.7592 11.7454 14.8147 11.6199C14.8702 11.4943 14.8881 11.3554 14.8661 11.2199C14.8441 11.0843 14.7832 10.9582 14.6908 10.8566C13.7487 9.8855 12.75 8.85346 12.75 5.66667C12.75 4.5395 12.3022 3.45849 11.5052 2.66146C10.7082 1.86443 9.62717 1.41667 8.5 1.41667C7.37283 1.41667 6.29183 1.86443 5.4948 2.66146C4.69777 3.45849 4.25 4.5395 4.25 5.66667C4.25 8.85346 3.25054 9.8855 2.31058 10.8559Z" stroke="#3D3352" stroke-width="1.41667" stroke-linecap="round" stroke-linejoin="round"/>
</g>
</svg>
