<svg preserveAspectRatio="none" overflow="visible" style="display: block;" width="23" height="24" viewBox="0 0 23 24" fill="none" xmlns="http://www.w3.org/2000/svg">
<g id="message-notif">
<path id="Vector" d="M21.0833 10V13C21.0833 17 19.1667 19 15.3333 19H14.8542C14.5571 19 14.2696 19.15 14.0875 19.4L12.65 21.4C12.0175 22.28 10.9825 22.28 10.35 21.4L8.9125 19.4C8.75917 19.18 8.40458 19 8.14583 19H7.66667C3.83333 19 1.91667 18 1.91667 13V8C1.91667 4 3.83333 2 7.66667 2H13.4167" stroke="white" stroke-width="1.5" stroke-miterlimit="10" stroke-linecap="round" stroke-linejoin="round"/>
<path id="Vector_2" d="M18.6875 7C20.0107 7 21.0833 5.88071 21.0833 4.5C21.0833 3.11929 20.0107 2 18.6875 2C17.3643 2 16.2917 3.11929 16.2917 4.5C16.2917 5.88071 17.3643 7 18.6875 7Z" stroke="white" stroke-width="1.5" stroke-linecap="round" stroke-linejoin="round"/>
<path id="Vector_3" d="M15.3299 11H15.3385" stroke="white" stroke-width="2" stroke-linecap="round" stroke-linejoin="round"/>
<path id="Vector_4" d="M11.4957 11H11.5043" stroke="white" stroke-width="2" stroke-linecap="round" stroke-linejoin="round"/>
<path id="Vector_5" d="M7.6614 11H7.67001" stroke="white" stroke-width="2" stroke-linecap="round" stroke-linejoin="round"/>
<g id="Vector_6" opacity="0">
</g>
</g>
</svg>
